riter neue italic test.ufo
<glyph name="dollar" format="1">
  <advance width="500"/>
  <unicode hex="0024"/>
  <outline>
    <contour>
      <point x="277" y="393" type="curve" smooth="yes"/>
      <point x="240" y="406"/>
      <point x="157" y="433"/>
      <point x="157" y="482" type="curve"/>
      <point x="157" y="524"/>
      <point x="206" y="542"/>
      <point x="256" y="542" type="curve"/>
      <point x="296" y="542"/>
      <point x="357" y="528"/>
      <point x="357" y="504" type="curve"/>
      <point x="377" y="502" type="line"/>
      <point x="399" y="504" type="line"/>
      <point x="391" y="588" type="line"/>
      <point x="391" y="591"/>
      <point x="358" y="612"/>
      <point x="264" y="612" type="curve"/>
      <point x="165" y="612"/>
      <point x="64" y="558"/>
      <point x="64" y="473" type="curve"/>
      <point x="64" y="382"/>
      <point x="153" y="350"/>
      <point x="188" y="336" type="curve" smooth="yes"/>
      <point x="223" y="322"/>
      <point x="329" y="301"/>
      <point x="329" y="243" type="curve"/>
      <point x="329" y="197"/>
      <point x="272" y="179"/>
      <point x="220" y="179" type="curve"/>
      <point x="146" y="179"/>
      <point x="99" y="205"/>
      <point x="99" y="233" type="curve"/>
      <point x="73" y="236" type="line"/>
      <point x="48" y="233" type="line"/>
      <point x="64" y="156" type="line"/>
      <point x="60" y="156"/>
      <point x="116" y="102"/>
      <point x="230" y="102" type="curve"/>
      <point x="336" y="102"/>
      <point x="420" y="158"/>
      <point x="420" y="252" type="curve"/>
      <point x="420" y="346"/>
      <point x="307" y="383"/>
    </contour>
    <contour>
      <point x="284" y="795" type="line"/>
      <point x="284" y="807"/>
      <point x="278" y="812"/>
      <point x="272" y="812" type="curve"/>
      <point x="203" y="812" type="line"/>
      <point x="195" y="812"/>
      <point x="191" y="808"/>
      <point x="191" y="797" type="curve"/>
      <point x="191" y="595" type="line"/>
      <point x="191" y="584"/>
      <point x="195" y="580"/>
      <point x="203" y="580" type="curve"/>
      <point x="272" y="580" type="line"/>
      <point x="278" y="580"/>
      <point x="284" y="585"/>
      <point x="284" y="597" type="curve"/>
    </contour>
    <contour>
      <point x="284" y="106" type="line"/>
      <point x="284" y="118"/>
      <point x="278" y="123"/>
      <point x="272" y="123" type="curve"/>
      <point x="203" y="123" type="line"/>
      <point x="195" y="123"/>
      <point x="191" y="119"/>
      <point x="191" y="108" type="curve"/>
      <point x="191" y="-88" type="line"/>
      <point x="191" y="-99"/>
      <point x="195" y="-103"/>
      <point x="203" y="-103" type="curve"/>
      <point x="272" y="-103" type="line"/>
      <point x="278" y="-103"/>
      <point x="284" y="-98"/>
      <point x="284" y="-86" type="curve"/>
    </contour>
  </outline>
</glyph>
<glyph name="period" format="1">
  <advance width="372"/>
  <unicode hex="002E"/>
  <outline>
    <contour>
      <point x="185" y="2" type="curve"/>
      <point x="242" y="2"/>
      <point x="262" y="19"/>
      <point x="262" y="81" type="curve" smooth="yes"/>
      <point x="262" y="142"/>
      <point x="242" y="158"/>
      <point x="183" y="158" type="curve" smooth="yes"/>
      <point x="126" y="158"/>
      <point x="105" y="142"/>
      <point x="105" y="81" type="curve" smooth="yes"/>
      <point x="105" y="19"/>
      <point x="126" y="2"/>
    </contour>
  </outline>
</glyph>
<glyph name="six" format="1">
  <advance width="614"/>
  <unicode hex="0036"/>
  <outline>
    <contour>
      <point x="167" y="246" type="curve" smooth="yes"/>
      <point x="167" y="332"/>
      <point x="232" y="395"/>
      <point x="316" y="395" type="curve"/>
      <point x="395" y="395"/>
      <point x="457" y="335"/>
      <point x="457" y="245" type="curve"/>
      <point x="456" y="149"/>
      <point x="412" y="74"/>
      <point x="312" y="74" type="curve"/>
      <point x="210" y="74"/>
      <point x="167" y="162"/>
    </contour>
    <contour>
      <point x="409" y="596" type="curve"/>
      <point x="408" y="615"/>
      <point x="371" y="675"/>
      <point x="353" y="675" type="curve"/>
      <point x="196" y="675"/>
      <point x="61" y="518"/>
      <point x="61" y="276" type="curve"/>
      <point x="61" y="142"/>
      <point x="136" y="-15"/>
      <point x="317" y="-15" type="curve"/>
      <point x="450" y="-15"/>
      <point x="559" y="82"/>
      <point x="559" y="245" type="curve"/>
      <point x="559" y="393"/>
      <point x="452" y="479"/>
      <point x="330" y="479" type="curve"/>
      <point x="225" y="479"/>
      <point x="159" y="411"/>
      <point x="159" y="367" type="curve"/>
      <point x="174" y="373" type="line"/>
      <point x="174" y="446"/>
      <point x="254" y="596"/>
    </contour>
  </outline>
</glyph>
<glyph name="A" format="1">
  <advance width="771"/>
  <unicode hex="0041"/>
  <outline>
    <contour>
      <point x="414" y="704" type="line"/>
      <point x="89" y="93" type="line"/>
      <point x="89" y="93" type="line"/>
      <point x="86" y="86"/>
      <point x="82" y="81"/>
      <point x="78" y="78" type="curve" smooth="yes"/>
      <point x="73" y="74"/>
      <point x="16" y="55"/>
      <point x="15" y="51" type="curve" smooth="yes"/>
      <point x="13" y="45"/>
      <point x="13" y="34"/>
      <point x="13" y="24" type="curve" smooth="yes"/>
      <point x="13" y="15"/>
      <point x="14" y="6"/>
      <point x="15" y="0" type="curve"/>
      <point x="261" y="0" type="line"/>
      <point x="262" y="7"/>
      <point x="264" y="16"/>
      <point x="264" y="25" type="curve" smooth="yes"/>
      <point x="264" y="35"/>
      <point x="261" y="49"/>
      <point x="258" y="51" type="curve" smooth="yes"/>
      <point x="254" y="53"/>
      <point x="218" y="70"/>
      <point x="206" y="78" type="curve"/>
      <point x="204" y="80"/>
      <point x="203" y="88"/>
      <point x="205" y="93" type="curve"/>
      <point x="472" y="612" type="line"/>
      <point x="449" y="612" type="line"/>
      <point x="569" y="92" type="line"/>
      <point x="571" y="90"/>
      <point x="571" y="79"/>
      <point x="569" y="78" type="curve" smooth="yes"/>
      <point x="559" y="72"/>
      <point x="519" y="53"/>
      <point x="515" y="51" type="curve" smooth="yes"/>
      <point x="512" y="49"/>
      <point x="509" y="35"/>
      <point x="509" y="25" type="curve" smooth="yes"/>
      <point x="509" y="16"/>
      <point x="511" y="7"/>
      <point x="512" y="0" type="curve"/>
      <point x="754" y="0" type="line"/>
      <point x="755" y="6"/>
      <point x="756" y="15"/>
      <point x="756" y="24" type="curve" smooth="yes"/>
      <point x="756" y="34"/>
      <point x="756" y="45"/>
      <point x="754" y="51" type="curve" smooth="yes"/>
      <point x="753" y="55"/>
      <point x="696" y="74"/>
      <point x="691" y="78" type="curve" smooth="yes"/>
      <point x="687" y="81"/>
      <point x="683" y="86"/>
      <point x="680" y="93" type="curve"/>
      <point x="521" y="704" type="line"/>
    </contour>
    <contour>
      <point x="219" y="296" type="line"/>
      <point x="219" y="205" type="line"/>
      <point x="606" y="205" type="line"/>
      <point x="606" y="296" type="line"/>
    </contour>
  </outline>
</glyph>
<glyph name="B" format="1">
  <advance width="617"/>
  <unicode hex="0042"/>
  <outline>
    <contour>
      <point x="294" y="411" type="curve" smooth="yes"/>
      <point x="268" y="411"/>
      <point x="247" y="412"/>
      <point x="203" y="415" type="curve"/>
      <point x="233" y="383" type="line"/>
      <point x="231" y="648" type="line"/>
      <point x="202" y="612" type="line"/>
      <point x="229" y="624"/>
      <point x="281" y="631"/>
      <point x="308" y="631" type="curve" smooth="yes"/>
      <point x="388" y="631"/>
      <point x="433" y="589"/>
      <point x="433" y="523" type="curve" smooth="yes"/>
      <point x="433" y="465"/>
      <point x="377" y="411"/>
    </contour>
    <contour>
      <point x="290" y="82" type="curve"/>
      <point x="251" y="82"/>
      <point x="235" y="85"/>
      <point x="235" y="96" type="curve"/>
      <point x="233" y="358" type="line"/>
      <point x="209" y="329" type="line"/>
      <point x="230" y="335"/>
      <point x="273" y="334"/>
      <point x="301" y="334" type="curve"/>
      <point x="378" y="334"/>
      <point x="452" y="297"/>
      <point x="452" y="215" type="curve"/>
      <point x="452" y="131"/>
      <point x="393" y="82"/>
    </contour>
    <contour>
      <point x="330" y="0" type="line"/>
      <point x="464" y="0"/>
      <point x="555" y="97"/>
      <point x="555" y="219" type="curve"/>
      <point x="555" y="328"/>
      <point x="462" y="386"/>
      <point x="361" y="386" type="curve"/>
      <point x="362" y="367" type="line"/>
      <point x="448" y="367"/>
      <point x="532" y="460"/>
      <point x="532" y="526" type="curve" smooth="yes"/>
      <point x="532" y="645"/>
      <point x="461" y="708"/>
      <point x="323" y="708" type="curve"/>
      <point x="239" y="708"/>
      <point x="74" y="704"/>
      <point x="59" y="700" type="curve"/>
      <point x="57" y="694"/>
      <point x="56" y="688"/>
      <point x="56" y="675" type="curve" smooth="yes"/>
      <point x="56" y="662"/>
      <point x="56" y="657"/>
      <point x="59" y="651" type="curve" smooth="yes"/>
      <point x="61" y="647"/>
      <point x="103" y="632"/>
      <point x="118" y="623" type="curve"/>
      <point x="125" y="620"/>
      <point x="129" y="614"/>
      <point x="129" y="607" type="curve"/>
      <point x="129" y="92" type="line" smooth="yes"/>
      <point x="129" y="81"/>
      <point x="123" y="77"/>
      <point x="116" y="74" type="curve" smooth="yes"/>
      <point x="102" y="67"/>
      <point x="61" y="53"/>
      <point x="59" y="49" type="curve" smooth="yes"/>
      <point x="56" y="43"/>
      <point x="56" y="38"/>
      <point x="56" y="25" type="curve" smooth="yes"/>
      <point x="56" y="12"/>
      <point x="57" y="6"/>
      <point x="59" y="0" type="curve"/>
    </contour>
  </outline>
</glyph>
<glyph name="C" format="1">
  <advance width="659"/>
  <unicode hex="0043"/>
  <outline>
    <contour>
      <point x="616" y="587" type="curve"/>
      <point x="596" y="611"/>
      <point x="571" y="621"/>
      <point x="511" y="622" type="curve"/>
      <point x="381" y="621"/>
      <point x="225" y="484"/>
      <point x="225" y="265" type="curve"/>
      <point x="225" y="170"/>
      <point x="264" y="70"/>
      <point x="392" y="70" type="curve"/>
      <point x="485" y="70"/>
      <point x="528" y="100"/>
      <point x="558" y="116" type="curve" smooth="yes"/>
      <point x="568" y="121"/>
      <point x="601" y="70"/>
      <point x="591" y="61" type="curve" smooth="yes"/>
      <point x="560" y="33"/>
      <point x="490" y="-18"/>
      <point x="384" y="-18" type="curve"/>
      <point x="173" y="-18"/>
      <point x="111" y="133"/>
      <point x="111" y="268" type="curve"/>
      <point x="111" y="509"/>
      <point x="309" y="713"/>
      <point x="532" y="713" type="curve"/>
      <point x="619" y="713"/>
      <point x="668" y="696"/>
      <point x="714" y="651" type="curve"/>
      <point x="714" y="651"/>
      <point x="714" y="650"/>
      <point x="714" y="649" type="curve" smooth="yes"/>
      <point x="714" y="628"/>
      <point x="666" y="492"/>
      <point x="663" y="492" type="curve" smooth="yes"/>
      <point x="660" y="491"/>
      <point x="657" y="490"/>
      <point x="653" y="490" type="curve" smooth="yes"/>
      <point x="649" y="490"/>
      <point x="645" y="491"/>
      <point x="638" y="491" type="curve" smooth="yes"/>
      <point x="625" y="492"/>
      <point x="620" y="493"/>
      <point x="615" y="496" type="curve" smooth="yes"/>
      <point x="611" y="498"/>
      <point x="619" y="575"/>
    </contour>
  </outline>
</glyph>
<glyph name="H" format="1">
  <advance width="796"/>
  <unicode hex="0048"/>
  <outline>
    <contour>
      <point x="273" y="407" type="line"/>
      <point x="273" y="314" type="line"/>
      <point x="660" y="326" type="line"/>
      <point x="660" y="419" type="line"/>
    </contour>
    <contour>
      <point x="373" y="680" type="curve" smooth="yes"/>
      <point x="373" y="695"/>
      <point x="360" y="712"/>
      <point x="341" y="712" type="curve" smooth="yes"/>
      <point x="335" y="712"/>
      <point x="194" y="684"/>
      <point x="184" y="680" type="curve" smooth="yes"/>
      <point x="177" y="677"/>
      <point x="170" y="661"/>
      <point x="169" y="652" type="curve" smooth="yes"/>
      <point x="168" y="643"/>
      <point x="171" y="627"/>
      <point x="174" y="627" type="curve" smooth="yes"/>
      <point x="181" y="627"/>
      <point x="235" y="628"/>
      <point x="243" y="628" type="curve" smooth="yes"/>
      <point x="251" y="628"/>
      <point x="252" y="609"/>
      <point x="252" y="602" type="curve"/>
      <point x="165" y="120" type="line" smooth="yes"/>
      <point x="157" y="78"/>
      <point x="127" y="26"/>
      <point x="63" y="19" type="curve" smooth="yes"/>
      <point x="51" y="18"/>
      <point x="36" y="-45"/>
      <point x="38" y="-45" type="curve"/>
      <point x="91" y="-45"/>
      <point x="181" y="-20"/>
      <point x="204" y="-6" type="curve" smooth="yes"/>
      <point x="219" y="3"/>
      <point x="257" y="36"/>
      <point x="267" y="88" type="curve" smooth="yes"/>
      <point x="291" y="212"/>
      <point x="373" y="671"/>
    </contour>
    <contour>
      <point x="544" y="19" type="curve"/>
      <point x="544" y="5"/>
      <point x="559" y="-13"/>
      <point x="575" y="-14" type="curve" smooth="yes"/>
      <point x="581" y="-14"/>
      <point x="725" y="-2"/>
      <point x="734" y="5" type="curve" smooth="yes"/>
      <point x="738" y="8"/>
      <point x="746" y="24"/>
      <point x="747" y="33" type="curve" smooth="yes"/>
      <point x="748" y="42"/>
      <point x="744" y="59"/>
      <point x="741" y="59" type="curve" smooth="yes"/>
      <point x="734" y="59"/>
      <point x="681" y="62"/>
      <point x="674" y="66" type="curve" smooth="yes"/>
      <point x="666" y="70"/>
      <point x="665" y="84"/>
      <point x="665" y="91" type="curve"/>
      <point x="755" y="598" type="line" smooth="yes"/>
      <point x="761" y="634"/>
      <point x="787" y="669"/>
      <point x="818" y="669" type="curve" smooth="yes"/>
      <point x="830" y="669"/>
      <point x="838" y="726"/>
      <point x="836" y="726" type="curve"/>
      <point x="783" y="726"/>
      <point x="718" y="713"/>
      <point x="695" y="699" type="curve" smooth="yes"/>
      <point x="680" y="690"/>
      <point x="667" y="673"/>
      <point x="661" y="651" type="curve"/>
      <point x="632" y="527"/>
      <point x="544" y="28"/>
    </contour>
  </outline>
</glyph>
<glyph name="N" format="1">
  <advance width="803"/>
  <unicode hex="004E"/>
  <outline>
    <contour>
      <point x="597" y="607" type="line"/>
      <point x="597" y="618"/>
      <point x="591" y="622"/>
      <point x="584" y="625" type="curve"/>
      <point x="570" y="632"/>
      <point x="515" y="646"/>
      <point x="513" y="650" type="curve" smooth="yes"/>
      <point x="510" y="656"/>
      <point x="510" y="661"/>
      <point x="510" y="674" type="curve" smooth="yes"/>
      <point x="510" y="687"/>
      <point x="511" y="693"/>
      <point x="513" y="699" type="curve"/>
      <point x="767" y="699" type="line"/>
      <point x="769" y="693"/>
      <point x="770" y="687"/>
      <point x="770" y="674" type="curve" smooth="yes"/>
      <point x="770" y="661"/>
      <point x="770" y="656"/>
      <point x="767" y="650" type="curve" smooth="yes"/>
      <point x="765" y="646"/>
      <point x="716" y="630"/>
      <point x="705" y="625" type="curve" smooth="yes"/>
      <point x="696" y="621"/>
      <point x="692" y="615"/>
      <point x="693" y="604" type="curve"/>
      <point x="693" y="0" type="line"/>
      <point x="604" y="0" type="line"/>
      <point x="202" y="543" type="line"/>
      <point x="216" y="545" type="line"/>
      <point x="219" y="95" type="line"/>
      <point x="218" y="84"/>
      <point x="222" y="78"/>
      <point x="231" y="74" type="curve" smooth="yes"/>
      <point x="242" y="69"/>
      <point x="298" y="53"/>
      <point x="300" y="49" type="curve" smooth="yes"/>
      <point x="303" y="43"/>
      <point x="303" y="38"/>
      <point x="303" y="25" type="curve" smooth="yes"/>
      <point x="303" y="12"/>
      <point x="302" y="6"/>
      <point x="300" y="0" type="curve"/>
      <point x="50" y="0" type="line"/>
      <point x="48" y="6"/>
      <point x="47" y="12"/>
      <point x="47" y="25" type="curve" smooth="yes"/>
      <point x="47" y="38"/>
      <point x="47" y="43"/>
      <point x="50" y="49" type="curve" smooth="yes"/>
      <point x="52" y="53"/>
      <point x="93" y="67"/>
      <point x="107" y="74" type="curve"/>
      <point x="114" y="77"/>
      <point x="120" y="81"/>
      <point x="120" y="92" type="curve"/>
      <point x="120" y="605" type="line"/>
      <point x="120" y="616"/>
      <point x="117" y="622"/>
      <point x="108" y="626" type="curve" smooth="yes"/>
      <point x="97" y="631"/>
      <point x="48" y="647"/>
      <point x="46" y="651" type="curve" smooth="yes"/>
      <point x="43" y="657"/>
      <point x="43" y="662"/>
      <point x="43" y="675" type="curve" smooth="yes"/>
      <point x="43" y="688"/>
      <point x="44" y="694"/>
      <point x="46" y="700" type="curve"/>
      <point x="226" y="700" type="line"/>
      <point x="625" y="147" type="line"/>
      <point x="597" y="144" type="line"/>
    </contour>
  </outline>
</glyph>
<glyph name="O" format="1">
  <advance width="768"/>
  <unicode hex="004F"/>
  <outline>
    <contour>
      <point x="226" y="467"/>
      <point x="345" y="624"/>
      <point x="494" y="624" type="curve"/>
      <point x="602" y="624"/>
      <point x="644" y="555"/>
      <point x="644" y="426" type="curve"/>
      <point x="644" y="240"/>
      <point x="534" y="71"/>
      <point x="381" y="71" type="curve" smooth="yes"/>
      <point x="272" y="71"/>
      <point x="226" y="157"/>
      <point x="226" y="265" type="curve"/>
    </contour>
    <contour>
      <point x="592" y="-17"/>
      <point x="765" y="185"/>
      <point x="765" y="441" type="curve"/>
      <point x="765" y="622"/>
      <point x="683" y="712"/>
      <point x="516" y="712" type="curve"/>
      <point x="283" y="712"/>
      <point x="113" y="502"/>
      <point x="113" y="240" type="curve"/>
      <point x="113" y="74"/>
      <point x="211" y="-17"/>
      <point x="361" y="-17" type="curve"/>
    </contour>
  </outline>
</glyph>
<glyph name="P" format="1">
  <advance width="611"/>
  <unicode hex="0050"/>
  <outline>
    <contour>
      <point x="191" y="235" type="line"/>
      <point x="191" y="230"/>
      <point x="221" y="220"/>
      <point x="278" y="220" type="curve"/>
      <point x="393" y="220"/>
      <point x="566" y="291"/>
      <point x="566" y="494" type="curve"/>
      <point x="566" y="649"/>
      <point x="446" y="706"/>
      <point x="291" y="706" type="curve"/>
      <point x="207" y="706"/>
      <point x="58" y="698"/>
      <point x="36" y="694" type="curve"/>
      <point x="34" y="688"/>
      <point x="33" y="682"/>
      <point x="33" y="669" type="curve" smooth="yes"/>
      <point x="33" y="656"/>
      <point x="33" y="651"/>
      <point x="36" y="645" type="curve" smooth="yes"/>
      <point x="38" y="641"/>
      <point x="80" y="626"/>
      <point x="95" y="617" type="curve"/>
      <point x="102" y="614"/>
      <point x="106" y="608"/>
      <point x="106" y="601" type="curve"/>
      <point x="106" y="86" type="line" smooth="yes"/>
      <point x="106" y="75"/>
      <point x="100" y="71"/>
      <point x="93" y="68" type="curve" smooth="yes"/>
      <point x="79" y="61"/>
      <point x="48" y="47"/>
      <point x="46" y="43" type="curve" smooth="yes"/>
      <point x="43" y="37"/>
      <point x="43" y="32"/>
      <point x="43" y="19" type="curve" smooth="yes"/>
      <point x="43" y="6"/>
      <point x="44" y="0"/>
      <point x="46" y="-6" type="curve"/>
      <point x="285" y="-6" type="line"/>
      <point x="287" y="0"/>
      <point x="288" y="6"/>
      <point x="288" y="19" type="curve" smooth="yes"/>
      <point x="288" y="32"/>
      <point x="288" y="37"/>
      <point x="285" y="43" type="curve" smooth="yes"/>
      <point x="283" y="47"/>
      <point x="236" y="62"/>
      <point x="225" y="68" type="curve"/>
      <point x="216" y="71"/>
      <point x="210" y="78"/>
      <point x="210" y="89" type="curve"/>
      <point x="208" y="637" type="line"/>
      <point x="192" y="614" type="line"/>
      <point x="209" y="618"/>
      <point x="275" y="621"/>
      <point x="309" y="621" type="curve" smooth="yes"/>
      <point x="384" y="621"/>
      <point x="454" y="573"/>
      <point x="454" y="479" type="curve"/>
      <point x="454" y="360"/>
      <point x="350" y="308"/>
      <point x="268" y="308" type="curve"/>
      <point x="225" y="308"/>
      <point x="191" y="311"/>
      <point x="191" y="316" type="curve"/>
    </contour>
  </outline>
</glyph>
<glyph name="R" format="1">
  <advance width="676"/>
  <unicode hex="0052"/>
  <outline>
    <contour>
      <point x="659" y="0" type="line"/>
      <point x="661" y="6"/>
      <point x="662" y="12"/>
      <point x="662" y="25" type="curve" smooth="yes"/>
      <point x="662" y="38"/>
      <point x="661" y="44"/>
      <point x="656" y="49" type="curve" smooth="yes"/>
      <point x="652" y="53"/>
      <point x="610" y="69"/>
      <point x="596" y="74" type="curve" smooth="yes"/>
      <point x="587" y="77"/>
      <point x="581" y="84"/>
      <point x="574" y="92" type="curve" smooth="yes"/>
      <point x="565" y="103"/>
      <point x="448" y="283"/>
      <point x="405" y="346" type="curve"/>
      <point x="317" y="291" type="line"/>
      <point x="501" y="9" type="line"/>
      <point x="504" y="4"/>
      <point x="508" y="1"/>
      <point x="513" y="0" type="curve"/>
    </contour>
    <contour>
      <point x="311" y="348" type="curve" smooth="yes"/>
      <point x="275" y="348"/>
      <point x="227" y="349"/>
      <point x="216" y="352" type="curve"/>
      <point x="229" y="326" type="line"/>
      <point x="227" y="637" type="line"/>
      <point x="211" y="614" type="line"/>
      <point x="234" y="623"/>
      <point x="294" y="622"/>
      <point x="328" y="622" type="curve" smooth="yes"/>
      <point x="403" y="622"/>
      <point x="475" y="586"/>
      <point x="475" y="497" type="curve" smooth="yes"/>
      <point x="475" y="401"/>
      <point x="393" y="348"/>
    </contour>
    <contour>
      <point x="298" y="25" type="curve" smooth="yes"/>
      <point x="298" y="38"/>
      <point x="298" y="43"/>
      <point x="295" y="49" type="curve" smooth="yes"/>
      <point x="293" y="53"/>
      <point x="255" y="68"/>
      <point x="244" y="74" type="curve"/>
      <point x="235" y="77"/>
      <point x="229" y="84"/>
      <point x="229" y="95" type="curve" smooth="yes"/>
      <point x="229" y="287" type="line"/>
      <point x="207" y="270" type="line"/>
      <point x="218" y="259"/>
      <point x="273" y="259"/>
      <point x="325" y="259" type="curve" smooth="yes"/>
      <point x="442" y="259"/>
      <point x="576" y="351"/>
      <point x="576" y="504" type="curve" smooth="yes"/>
      <point x="576" y="646"/>
      <point x="465" y="708"/>
      <point x="310" y="708" type="curve"/>
      <point x="226" y="708"/>
      <point x="70" y="704"/>
      <point x="55" y="700" type="curve"/>
      <point x="53" y="694"/>
      <point x="52" y="688"/>
      <point x="52" y="675" type="curve" smooth="yes"/>
      <point x="52" y="662"/>
      <point x="52" y="657"/>
      <point x="55" y="651" type="curve" smooth="yes"/>
      <point x="57" y="647"/>
      <point x="99" y="632"/>
      <point x="114" y="623" type="curve"/>
      <point x="121" y="620"/>
      <point x="125" y="614"/>
      <point x="125" y="607" type="curve"/>
      <point x="125" y="92" type="line" smooth="yes"/>
      <point x="125" y="81"/>
      <point x="119" y="77"/>
      <point x="112" y="74" type="curve" smooth="yes"/>
      <point x="98" y="67"/>
      <point x="57" y="53"/>
      <point x="55" y="49" type="curve" smooth="yes"/>
      <point x="52" y="43"/>
      <point x="52" y="38"/>
      <point x="52" y="25" type="curve" smooth="yes"/>
      <point x="52" y="12"/>
      <point x="53" y="6"/>
      <point x="55" y="0" type="curve"/>
      <point x="295" y="0" type="line"/>
      <point x="297" y="6"/>
      <point x="298" y="12"/>
    </contour>
  </outline>
</glyph>
<glyph name="S" format="1">
  <advance width="537.0"/>
  <unicode hex="0053"/>
  <outline>
    <contour>
      <point x="317" y="396" type="curve" smooth="yes"/>
      <point x="274" y="414"/>
      <point x="163" y="438"/>
      <point x="163" y="523" type="curve"/>
      <point x="163" y="581"/>
      <point x="234" y="620"/>
      <point x="292" y="620" type="curve"/>
      <point x="388" y="620"/>
      <point x="410" y="566"/>
      <point x="410" y="529" type="curve"/>
      <point x="410" y="527"/>
      <point x="422" y="523"/>
      <point x="434" y="523" type="curve" smooth="yes"/>
      <point x="446" y="523"/>
      <point x="459" y="526"/>
      <point x="459" y="529" type="curve"/>
      <point x="459" y="668" type="line"/>
      <point x="459" y="673"/>
      <point x="410" y="710"/>
      <point x="302" y="710" type="curve"/>
      <point x="187" y="710"/>
      <point x="53" y="634"/>
      <point x="53" y="513" type="curve"/>
      <point x="53" y="386"/>
      <point x="164" y="350"/>
      <point x="204" y="330" type="curve" smooth="yes"/>
      <point x="246" y="309"/>
      <point x="381" y="271"/>
      <point x="381" y="190" type="curve"/>
      <point x="381" y="116"/>
      <point x="304" y="87"/>
      <point x="246" y="86" type="curve"/>
      <point x="147" y="86"/>
      <point x="108" y="141"/>
      <point x="108" y="211" type="curve"/>
      <point x="108" y="213"/>
      <point x="96" y="217"/>
      <point x="81" y="217" type="curve" smooth="yes"/>
      <point x="66" y="217"/>
      <point x="53" y="213"/>
      <point x="53" y="211" type="curve"/>
      <point x="53" y="53" type="line"/>
      <point x="48" y="53"/>
      <point x="124" y="-6"/>
      <point x="255" y="-6" type="curve"/>
      <point x="377" y="-6"/>
      <point x="487" y="74"/>
      <point x="487" y="197" type="curve"/>
      <point x="487" y="337"/>
      <point x="351" y="380"/>
    </contour>
  </outline>
</glyph>
<glyph name="W" format="1">
  <advance width="1083"/>
  <unicode hex="0057"/>
  <outline>
    <contour>
      <point x="702" y="0" type="line"/>
      <point x="821" y="0" type="line"/>
      <point x="995" y="607" type="line"/>
      <point x="998" y="614"/>
      <point x="1002" y="619"/>
      <point x="1006" y="622" type="curve" smooth="yes"/>
      <point x="1011" y="626"/>
      <point x="1068" y="645"/>
      <point x="1069" y="649" type="curve" smooth="yes"/>
      <point x="1071" y="655"/>
      <point x="1071" y="666"/>
      <point x="1071" y="676" type="curve" smooth="yes"/>
      <point x="1071" y="685"/>
      <point x="1070" y="694"/>
      <point x="1069" y="700" type="curve"/>
      <point x="809" y="700" type="line"/>
      <point x="808" y="693"/>
      <point x="806" y="684"/>
      <point x="806" y="675" type="curve" smooth="yes"/>
      <point x="806" y="665"/>
      <point x="809" y="651"/>
      <point x="812" y="649" type="curve" smooth="yes"/>
      <point x="816" y="647"/>
      <point x="864" y="630"/>
      <point x="876" y="622" type="curve"/>
      <point x="878" y="620"/>
      <point x="879" y="612"/>
      <point x="877" y="607" type="curve"/>
      <point x="748" y="66" type="line"/>
      <point x="792" y="66" type="line"/>
      <point x="596" y="692" type="line"/>
      <point x="473" y="692" type="line"/>
      <point x="302" y="66" type="line"/>
      <point x="340" y="66" type="line"/>
      <point x="205" y="608" type="line"/>
      <point x="203" y="610"/>
      <point x="203" y="621"/>
      <point x="205" y="622" type="curve" smooth="yes"/>
      <point x="215" y="628"/>
      <point x="261" y="647"/>
      <point x="265" y="649" type="curve" smooth="yes"/>
      <point x="268" y="651"/>
      <point x="271" y="665"/>
      <point x="271" y="675" type="curve" smooth="yes"/>
      <point x="271" y="684"/>
      <point x="269" y="693"/>
      <point x="268" y="700" type="curve"/>
      <point x="14" y="700" type="line"/>
      <point x="13" y="694"/>
      <point x="12" y="685"/>
      <point x="12" y="676" type="curve" smooth="yes"/>
      <point x="12" y="666"/>
      <point x="12" y="655"/>
      <point x="14" y="649" type="curve" smooth="yes"/>
      <point x="15" y="645"/>
      <point x="72" y="626"/>
      <point x="77" y="622" type="curve" smooth="yes"/>
      <point x="81" y="619"/>
      <point x="85" y="614"/>
      <point x="88" y="607" type="curve"/>
      <point x="257" y="0" type="line"/>
      <point x="381" y="0" type="line"/>
      <point x="550" y="643" type="line"/>
      <point x="502" y="643" type="line"/>
    </contour>
  </outline>
</glyph>
<glyph name="underscore" format="1">
  <advance width="532"/>
  <unicode hex="005F"/>
  <outline>
    <contour>
      <point x="55" y="113" type="line"/>
      <point x="43" y="113"/>
      <point x="38" y="107"/>
      <point x="38" y="101" type="curve"/>
      <point x="38" y="12" type="line"/>
      <point x="38" y="4"/>
      <point x="42" y="0"/>
      <point x="53" y="0" type="curve"/>
      <point x="480" y="0" type="line"/>
      <point x="491" y="0"/>
      <point x="495" y="4"/>
      <point x="495" y="12" type="curve"/>
      <point x="495" y="101" type="line"/>
      <point x="495" y="107"/>
      <point x="490" y="113"/>
      <point x="478" y="113" type="curve"/>
    </contour>
  </outline>
</glyph>
<glyph name="a" format="1">
  <advance width="669"/>
  <unicode hex="0061"/>
  <outline>
    <contour>
      <point x="573" y="183"/>
      <point x="655" y="521"/>
      <point x="655" y="534" type="curve" smooth="yes"/>
      <point x="655" y="549"/>
      <point x="649" y="549"/>
      <point x="634" y="550" type="curve"/>
      <point x="575" y="550" type="line"/>
      <point x="562" y="550"/>
      <point x="544" y="478"/>
      <point x="544" y="433" type="curve"/>
      <point x="557" y="439" type="line"/>
      <point x="557" y="510"/>
      <point x="502" y="570"/>
      <point x="401" y="570" type="curve" smooth="yes"/>
      <point x="238" y="570"/>
      <point x="94" y="410"/>
      <point x="94" y="198" type="curve"/>
      <point x="94" y="92"/>
      <point x="151" y="-10"/>
      <point x="271" y="-10" type="curve"/>
      <point x="444" y="-10"/>
      <point x="528" y="158"/>
      <point x="528" y="233" type="curve"/>
      <point x="503" y="234" type="line"/>
      <point x="500" y="214"/>
      <point x="476" y="77"/>
      <point x="476" y="56" type="curve" smooth="yes"/>
      <point x="476" y="24"/>
      <point x="492" y="-3"/>
      <point x="506" y="-4" type="curve"/>
      <point x="530" y="-4"/>
      <point x="603" y="22"/>
      <point x="635" y="30" type="curve"/>
      <point x="640" y="30"/>
      <point x="649" y="46"/>
      <point x="651" y="63" type="curve"/>
      <point x="652" y="68"/>
      <point x="653" y="72"/>
      <point x="653" y="77" type="curve" smooth="yes"/>
      <point x="653" y="85"/>
      <point x="650" y="92"/>
      <point x="644" y="94" type="curve"/>
      <point x="626" y="95"/>
      <point x="573" y="74"/>
      <point x="573" y="92" type="curve"/>
    </contour>
    <contour>
      <point x="468" y="481"/>
      <point x="509" y="438"/>
      <point x="509" y="395" type="curve"/>
      <point x="509" y="274"/>
      <point x="452" y="82"/>
      <point x="293" y="82" type="curve"/>
      <point x="220" y="82"/>
      <point x="199" y="160"/>
      <point x="199" y="227" type="curve"/>
      <point x="199" y="371"/>
      <point x="302" y="481"/>
      <point x="416" y="481" type="curve" smooth="yes"/>
    </contour>
  </outline>
</glyph>
<glyph name="b" format="1">
  <advance width="643"/>
  <unicode hex="0062"/>
  <outline>
    <contour>
      <point x="207" y="183" type="curve"/>
      <point x="207" y="318"/>
      <point x="292" y="480"/>
      <point x="423" y="480" type="curve"/>
      <point x="486" y="480"/>
      <point x="513" y="413"/>
      <point x="513" y="352" type="curve"/>
      <point x="513" y="263"/>
      <point x="445" y="78"/>
      <point x="293" y="78" type="curve"/>
      <point x="228" y="78"/>
      <point x="207" y="116"/>
    </contour>
    <contour>
      <point x="301" y="732" type="line"/>
      <point x="303" y="751"/>
      <point x="294" y="760"/>
      <point x="276" y="762" type="curve"/>
      <point x="140" y="746" type="line"/>
      <point x="134" y="747"/>
      <point x="127" y="734"/>
      <point x="125" y="722" type="curve"/>
      <point x="123" y="711"/>
      <point x="126" y="696"/>
      <point x="131" y="695" type="curve"/>
      <point x="225" y="683" type="line"/>
      <point x="199" y="717" type="line"/>
      <point x="184" y="584"/>
      <point x="107" y="256"/>
      <point x="107" y="175" type="curve"/>
      <point x="107" y="74"/>
      <point x="149" y="-12"/>
      <point x="281" y="-12" type="curve"/>
      <point x="480" y="-12"/>
      <point x="608" y="162"/>
      <point x="608" y="369" type="curve"/>
      <point x="608" y="468"/>
      <point x="569" y="565"/>
      <point x="447" y="565" type="curve"/>
      <point x="325" y="565"/>
      <point x="230" y="463"/>
      <point x="223" y="420" type="curve"/>
      <point x="239" y="424" type="line"/>
    </contour>
  </outline>
</glyph>
<glyph name="c" format="1">
  <advance width="546"/>
  <unicode hex="0063"/>
  <outline>
    <contour>
      <point x="508" y="440" type="curve"/>
      <point x="489" y="466"/>
      <point x="459" y="478"/>
      <point x="398" y="478" type="curve"/>
      <point x="291" y="478"/>
      <point x="194" y="361"/>
      <point x="194" y="209" type="curve"/>
      <point x="194" y="112"/>
      <point x="249" y="62"/>
      <point x="338" y="62" type="curve"/>
      <point x="426" y="62"/>
      <point x="464" y="86"/>
      <point x="485" y="104" type="curve" smooth="yes"/>
      <point x="485" y="104"/>
      <point x="485" y="104"/>
      <point x="486" y="104" type="curve" smooth="yes"/>
      <point x="490" y="104"/>
      <point x="498" y="93"/>
      <point x="503" y="80" type="curve" smooth="yes"/>
      <point x="507" y="70"/>
      <point x="509" y="56"/>
      <point x="509" y="48" type="curve" smooth="yes"/>
      <point x="509" y="44"/>
      <point x="509" y="42"/>
      <point x="508" y="41" type="curve"/>
      <point x="484" y="22"/>
      <point x="430" y="-19"/>
      <point x="323" y="-21" type="curve"/>
      <point x="188" y="-21"/>
      <point x="80" y="66"/>
      <point x="80" y="205" type="curve"/>
      <point x="80" y="418"/>
      <point x="241" y="561"/>
      <point x="398" y="561" type="curve"/>
      <point x="526" y="561"/>
      <point x="564" y="525"/>
      <point x="589" y="491" type="curve"/>
      <point x="589" y="460"/>
      <point x="557" y="359"/>
      <point x="555" y="359" type="curve" smooth="yes"/>
      <point x="551" y="358"/>
      <point x="548" y="357"/>
      <point x="544" y="357" type="curve" smooth="yes"/>
      <point x="541" y="357"/>
      <point x="538" y="358"/>
      <point x="533" y="358" type="curve" smooth="yes"/>
      <point x="523" y="359"/>
      <point x="519" y="359"/>
      <point x="514" y="363" type="curve" smooth="yes"/>
      <point x="512" y="364"/>
      <point x="512" y="432"/>
    </contour>
  </outline>
</glyph>
<glyph name="d" format="1">
  <advance width="724"/>
  <unicode hex="0064"/>
  <outline>
    <contour>
      <point x="733" y="731" type="curve"/>
      <point x="733" y="733"/>
      <point x="733" y="735"/>
      <point x="733" y="737" type="curve" smooth="yes"/>
      <point x="733" y="752"/>
      <point x="723" y="759"/>
      <point x="708" y="760" type="curve"/>
      <point x="570" y="743" type="line"/>
      <point x="564" y="743"/>
      <point x="558" y="731"/>
      <point x="556" y="719" type="curve"/>
      <point x="555" y="716"/>
      <point x="555" y="713"/>
      <point x="555" y="710" type="curve" smooth="yes"/>
      <point x="555" y="701"/>
      <point x="557" y="693"/>
      <point x="561" y="692" type="curve"/>
      <point x="630" y="689" type="line"/>
      <point x="629" y="682"/>
      <point x="580" y="437"/>
      <point x="573" y="399" type="curve"/>
      <point x="584" y="398" type="line"/>
      <point x="585" y="402"/>
      <point x="585" y="407"/>
      <point x="585" y="411" type="curve" smooth="yes"/>
      <point x="585" y="482"/>
      <point x="548" y="570"/>
      <point x="422" y="570" type="curve" smooth="yes"/>
      <point x="264" y="570"/>
      <point x="134" y="410"/>
      <point x="134" y="222" type="curve"/>
      <point x="134" y="92"/>
      <point x="202" y="-10"/>
      <point x="305" y="-10" type="curve"/>
      <point x="430" y="-10"/>
      <point x="539" y="74"/>
      <point x="539" y="149" type="curve"/>
      <point x="528" y="150" type="line"/>
      <point x="525" y="130"/>
      <point x="518" y="77"/>
      <point x="518" y="56" type="curve" smooth="yes"/>
      <point x="518" y="24"/>
      <point x="534" y="-3"/>
      <point x="548" y="-4" type="curve"/>
      <point x="572" y="-4"/>
      <point x="645" y="22"/>
      <point x="677" y="30" type="curve"/>
      <point x="682" y="30"/>
      <point x="691" y="46"/>
      <point x="693" y="63" type="curve"/>
      <point x="694" y="68"/>
      <point x="695" y="72"/>
      <point x="695" y="77" type="curve" smooth="yes"/>
      <point x="695" y="85"/>
      <point x="692" y="92"/>
      <point x="686" y="94" type="curve"/>
      <point x="668" y="95"/>
      <point x="628" y="78"/>
      <point x="614" y="92" type="curve"/>
      <point x="602" y="104"/>
      <point x="710" y="612"/>
    </contour>
    <contour>
      <point x="483" y="481"/>
      <point x="541" y="440"/>
      <point x="541" y="351" type="curve"/>
      <point x="541" y="204"/>
      <point x="442" y="82"/>
      <point x="339" y="82" type="curve"/>
      <point x="259" y="82"/>
      <point x="239" y="160"/>
      <point x="239" y="227" type="curve"/>
      <point x="239" y="371"/>
      <point x="329" y="481"/>
      <point x="431" y="481" type="curve" smooth="yes"/>
    </contour>
  </outline>
</glyph>
<glyph name="e" format="1">
  <advance width="634"/>
  <unicode hex="0065"/>
  <outline>
    <contour>
      <point x="506" y="41"/>
      <point x="466" y="-14"/>
      <point x="326" y="-14" type="curve" smooth="yes"/>
      <point x="178" y="-14"/>
      <point x="102" y="102"/>
      <point x="102" y="236" type="curve" smooth="yes"/>
      <point x="102" y="399"/>
      <point x="236" y="565"/>
      <point x="411" y="565" type="curve" smooth="yes"/>
      <point x="550" y="565"/>
      <point x="615" y="460"/>
      <point x="615" y="330" type="curve" smooth="yes"/>
      <point x="615" y="309"/>
      <point x="584" y="261"/>
      <point x="551" y="261" type="curve" smooth="yes"/>
      <point x="550" y="261"/>
      <point x="550" y="261"/>
      <point x="550" y="261" type="curve"/>
      <point x="172" y="264" type="line"/>
      <point x="187" y="340" type="line"/>
      <point x="542" y="340" type="line"/>
      <point x="522" y="314" type="line"/>
      <point x="523" y="322"/>
      <point x="524" y="331"/>
      <point x="524" y="339" type="curve" smooth="yes"/>
      <point x="524" y="426"/>
      <point x="460" y="482"/>
      <point x="403" y="482" type="curve" smooth="yes"/>
      <point x="282" y="482"/>
      <point x="205" y="356"/>
      <point x="205" y="246" type="curve" smooth="yes"/>
      <point x="205" y="147"/>
      <point x="262" y="69"/>
      <point x="343" y="69" type="curve" smooth="yes"/>
      <point x="433" y="69"/>
      <point x="464" y="92"/>
      <point x="526" y="143" type="curve" smooth="yes"/>
      <point x="527" y="144"/>
      <point x="528" y="144"/>
      <point x="530" y="144" type="curve" smooth="yes"/>
      <point x="537" y="144"/>
      <point x="547" y="133"/>
      <point x="554" y="121" type="curve" smooth="yes"/>
      <point x="557" y="114"/>
      <point x="559" y="104"/>
      <point x="559" y="95" type="curve" smooth="yes"/>
      <point x="559" y="89"/>
      <point x="558" y="84"/>
      <point x="557" y="84" type="curve" smooth="yes"/>
    </contour>
  </outline>
</glyph>
<glyph name="f" format="1">
  <advance width="398"/>
  <unicode hex="0066"/>
  <outline>
    <contour>
      <point x="327" y="678"/>
      <point x="302" y="628"/>
      <point x="285" y="550" type="curve" smooth="yes"/>
      <point x="263" y="446"/>
      <point x="212" y="92"/>
      <point x="187" y="-14" type="curve" smooth="yes"/>
      <point x="163" y="-116"/>
      <point x="91" y="-180"/>
      <point x="-8" y="-180" type="curve"/>
      <point x="-22" y="-180"/>
      <point x="-24" y="-168"/>
      <point x="-24" y="-156" type="curve" smooth="yes"/>
      <point x="-24" y="-147"/>
      <point x="-17" y="-131"/>
      <point x="-5" y="-131" type="curve" smooth="yes"/>
      <point x="16" y="-131"/>
      <point x="62" y="-94"/>
      <point x="76" y="-41" type="curve" smooth="yes"/>
      <point x="110" y="86"/>
      <point x="172" y="466"/>
      <point x="188" y="567" type="curve" smooth="yes"/>
      <point x="204" y="671"/>
      <point x="264" y="760"/>
      <point x="418" y="760" type="curve" smooth="yes"/>
      <point x="506" y="760"/>
      <point x="536" y="724"/>
      <point x="538" y="720" type="curve"/>
      <point x="512" y="613" type="line"/>
      <point x="507" y="611"/>
      <point x="493" y="611"/>
      <point x="485" y="611" type="curve"/>
      <point x="476" y="612"/>
      <point x="461" y="615"/>
      <point x="459" y="618" type="curve"/>
      <point x="459" y="639"/>
      <point x="451" y="678"/>
      <point x="403" y="678" type="curve"/>
    </contour>
    <contour>
      <point x="127" y="480" type="curve"/>
      <point x="424" y="480" type="line"/>
      <point x="429" y="481"/>
      <point x="434" y="463"/>
      <point x="432" y="442" type="curve" smooth="yes"/>
      <point x="429" y="426"/>
      <point x="417" y="407"/>
      <point x="413" y="407" type="curve"/>
      <point x="113" y="407" type="line"/>
      <point x="110" y="407"/>
      <point x="109" y="431"/>
      <point x="110" y="444" type="curve" smooth="yes"/>
      <point x="111" y="457"/>
      <point x="115" y="480"/>
    </contour>
  </outline>
</glyph>
<glyph name="h" format="1">
  <advance width="720"/>
  <unicode hex="0068"/>
  <outline>
    <contour>
      <point x="102" y="28" type="curve" smooth="yes"/>
      <point x="102" y="3"/>
      <point x="113" y="-8"/>
      <point x="136" y="-8" type="curve" smooth="yes"/>
      <point x="155" y="-8"/>
      <point x="257" y="15"/>
      <point x="297" y="22" type="curve"/>
      <point x="299" y="27"/>
      <point x="303" y="33"/>
      <point x="305" y="47" type="curve" smooth="yes"/>
      <point x="306" y="52"/>
      <point x="306" y="56"/>
      <point x="306" y="60" type="curve" smooth="yes"/>
      <point x="306" y="64"/>
      <point x="306" y="67"/>
      <point x="304" y="71" type="curve"/>
      <point x="303" y="74"/>
      <point x="241" y="75"/>
      <point x="229" y="82" type="curve" smooth="yes"/>
      <point x="222" y="86"/>
      <point x="220" y="91"/>
      <point x="220" y="99" type="curve"/>
      <point x="225" y="133"/>
      <point x="240" y="213"/>
      <point x="246" y="246" type="curve"/>
      <point x="277" y="336"/>
      <point x="374" y="464"/>
      <point x="463" y="464" type="curve"/>
      <point x="518" y="464"/>
      <point x="542" y="439"/>
      <point x="542" y="375" type="curve" smooth="yes"/>
      <point x="542" y="308"/>
      <point x="491" y="152"/>
      <point x="472" y="50" type="curve"/>
      <point x="471" y="47"/>
      <point x="471" y="43"/>
      <point x="471" y="40" type="curve" smooth="yes"/>
      <point x="471" y="14"/>
      <point x="488" y="-7"/>
      <point x="508" y="-7" type="curve" smooth="yes"/>
      <point x="533" y="-7"/>
      <point x="616" y="10"/>
      <point x="655" y="13" type="curve"/>
      <point x="655" y="13"/>
      <point x="656" y="13"/>
      <point x="656" y="13" type="curve" smooth="yes"/>
      <point x="662" y="13"/>
      <point x="667" y="25"/>
      <point x="669" y="38" type="curve" smooth="yes"/>
      <point x="670" y="45"/>
      <point x="671" y="49"/>
      <point x="671" y="52" type="curve" smooth="yes"/>
      <point x="671" y="57"/>
      <point x="670" y="59"/>
      <point x="666" y="61" type="curve" smooth="yes"/>
      <point x="661" y="66"/>
      <point x="603" y="69"/>
      <point x="596" y="74" type="curve"/>
      <point x="590" y="81"/>
      <point x="587" y="86"/>
      <point x="587" y="91" type="curve" smooth="yes"/>
      <point x="604" y="181"/>
      <point x="646" y="308"/>
      <point x="646" y="379" type="curve" smooth="yes"/>
      <point x="646" y="482"/>
      <point x="605" y="563"/>
      <point x="515" y="563" type="curve"/>
      <point x="341" y="563"/>
      <point x="252" y="390"/>
      <point x="244" y="345" type="curve"/>
      <point x="260" y="345" type="line"/>
      <point x="333" y="736" type="line"/>
      <point x="333" y="738"/>
      <point x="333" y="739"/>
      <point x="333" y="741" type="curve" smooth="yes"/>
      <point x="333" y="756"/>
      <point x="323" y="764"/>
      <point x="307" y="765" type="curve"/>
      <point x="145" y="730" type="line"/>
      <point x="136" y="730"/>
      <point x="134" y="718"/>
      <point x="132" y="705" type="curve" smooth="yes"/>
      <point x="131" y="697"/>
      <point x="137" y="684"/>
      <point x="139" y="682" type="curve" smooth="yes"/>
      <point x="144" y="675"/>
      <point x="186" y="681"/>
      <point x="206" y="681" type="curve" smooth="yes"/>
      <point x="213" y="681"/>
      <point x="221" y="674"/>
      <point x="221" y="663" type="curve" smooth="yes"/>
      <point x="221" y="656"/>
      <point x="102" y="57"/>
    </contour>
  </outline>
</glyph>
<glyph name="i" format="1">
  <advance width="330"/>
  <unicode hex="0069"/>
  <outline>
    <contour>
      <point x="205" y="101" type="line" smooth="yes"/>
      <point x="205" y="96"/>
      <point x="210" y="91"/>
      <point x="216" y="85" type="curve"/>
      <point x="225" y="80"/>
      <point x="288" y="53"/>
      <point x="294" y="49" type="curve" smooth="yes"/>
      <point x="300" y="45"/>
      <point x="301" y="42"/>
      <point x="301" y="26" type="curve" smooth="yes"/>
      <point x="301" y="13"/>
      <point x="297" y="8"/>
      <point x="296" y="0" type="curve"/>
      <point x="132" y="0" type="line"/>
      <point x="110" y="0"/>
      <point x="97" y="16"/>
      <point x="97" y="47" type="curve"/>
      <point x="103" y="461" type="line"/>
      <point x="103" y="468"/>
      <point x="100" y="474"/>
      <point x="93" y="477" type="curve" smooth="yes"/>
      <point x="77" y="483"/>
      <point x="33" y="501"/>
      <point x="31" y="505" type="curve" smooth="yes"/>
      <point x="28" y="511"/>
      <point x="28" y="512"/>
      <point x="28" y="525" type="curve" smooth="yes"/>
      <point x="28" y="538"/>
      <point x="29" y="544"/>
      <point x="31" y="550" type="curve"/>
      <point x="181" y="550" type="line"/>
      <point x="199" y="550"/>
      <point x="210" y="542"/>
      <point x="211" y="523" type="curve"/>
    </contour>
    <contour>
      <point x="147" y="612" type="curve" smooth="yes"/>
      <point x="192" y="612"/>
      <point x="212" y="625"/>
      <point x="212" y="673" type="curve" smooth="yes"/>
      <point x="212" y="720"/>
      <point x="192" y="732"/>
      <point x="147" y="732" type="curve" smooth="yes"/>
      <point x="104" y="732"/>
      <point x="85" y="720"/>
      <point x="85" y="673" type="curve" smooth="yes"/>
      <point x="85" y="625"/>
      <point x="104" y="612"/>
    </contour>
  </outline>
</glyph>
<glyph name="j" format="1">
  <advance width="304"/>
  <unicode hex="006A"/>
  <outline>
    <contour>
      <point x="35" y="-126"/>
      <point x="86" y="-76"/>
      <point x="104" y="5" type="curve" smooth="yes"/>
      <point x="120" y="77"/>
      <point x="169" y="337"/>
      <point x="191" y="466" type="curve"/>
      <point x="193" y="473"/>
      <point x="190" y="480"/>
      <point x="183" y="483" type="curve"/>
      <point x="173" y="490"/>
      <point x="127" y="483"/>
      <point x="125" y="487" type="curve" smooth="yes"/>
      <point x="123" y="493"/>
      <point x="124" y="498"/>
      <point x="126" y="511" type="curve" smooth="yes"/>
      <point x="128" y="524"/>
      <point x="131" y="530"/>
      <point x="133" y="536" type="curve"/>
      <point x="293" y="555" type="line"/>
      <point x="304" y="554"/>
      <point x="305" y="544"/>
      <point x="301" y="521" type="curve"/>
      <point x="269" y="340"/>
      <point x="218" y="71"/>
      <point x="201" y="-5" type="curve" smooth="yes"/>
      <point x="178" y="-110"/>
      <point x="108" y="-211"/>
      <point x="-41" y="-211" type="curve"/>
      <point x="-114" y="-211"/>
      <point x="-143" y="-177"/>
      <point x="-146" y="-172" type="curve"/>
      <point x="-150" y="-169"/>
      <point x="-151" y="-146"/>
      <point x="-146" y="-128" type="curve" smooth="yes"/>
      <point x="-142" y="-115"/>
      <point x="-133" y="-97"/>
      <point x="-124" y="-97" type="curve"/>
      <point x="-113" y="-111"/>
      <point x="-87" y="-126"/>
      <point x="-43" y="-126" type="curve"/>
    </contour>
    <contour>
      <point x="309" y="624" type="line"/>
      <point x="329" y="624"/>
      <point x="338" y="697"/>
      <point x="338" y="710" type="curve"/>
      <point x="338" y="716"/>
      <point x="333" y="725"/>
      <point x="324" y="725" type="curve"/>
      <point x="240" y="715" type="line"/>
      <point x="223" y="715"/>
      <point x="212" y="649"/>
      <point x="212" y="629" type="curve"/>
      <point x="212" y="621"/>
      <point x="218" y="614"/>
      <point x="230" y="614" type="curve"/>
    </contour>
  </outline>
</glyph>
<glyph name="k" format="1">
  <advance width="658"/>
  <unicode hex="006B"/>
  <outline>
    <contour>
      <point x="632" y="16" type="line"/>
      <point x="634" y="22"/>
      <point x="635" y="28"/>
      <point x="635" y="41" type="curve" smooth="yes"/>
      <point x="635" y="53"/>
      <point x="632" y="60"/>
      <point x="628" y="63" type="curve" smooth="yes"/>
      <point x="623" y="66"/>
      <point x="583" y="57"/>
      <point x="572" y="62" type="curve" smooth="yes"/>
      <point x="563" y="66"/>
      <point x="546" y="69"/>
      <point x="540" y="78" type="curve"/>
      <point x="413" y="230" type="line"/>
      <point x="304" y="209" type="line"/>
      <point x="492" y="-12" type="line"/>
      <point x="495" y="-17"/>
      <point x="512" y="-21"/>
      <point x="520" y="-20" type="curve"/>
    </contour>
    <contour>
      <point x="106" y="-14"/>
      <point x="207" y="12"/>
      <point x="207" y="20" type="curve"/>
      <point x="212" y="54"/>
      <point x="241" y="218"/>
      <point x="247" y="251" type="curve"/>
      <point x="262" y="363"/>
      <point x="389" y="491"/>
      <point x="504" y="491" type="curve"/>
      <point x="536" y="491"/>
      <point x="546" y="466"/>
      <point x="546" y="426" type="curve"/>
      <point x="546" y="338"/>
      <point x="433" y="267"/>
      <point x="312" y="267" type="curve"/>
      <point x="304" y="209" type="line"/>
      <point x="489" y="209"/>
      <point x="655" y="302"/>
      <point x="655" y="465" type="curve"/>
      <point x="655" y="525"/>
      <point x="615" y="573"/>
      <point x="559" y="573" type="curve"/>
      <point x="371" y="573"/>
      <point x="257" y="423"/>
      <point x="249" y="378" type="curve"/>
      <point x="267" y="378" type="line"/>
      <point x="332" y="736" type="line"/>
      <point x="332" y="738"/>
      <point x="332" y="739"/>
      <point x="332" y="741" type="curve" smooth="yes"/>
      <point x="332" y="756"/>
      <point x="322" y="764"/>
      <point x="306" y="765" type="curve"/>
      <point x="145" y="730" type="line"/>
      <point x="136" y="730"/>
      <point x="134" y="718"/>
      <point x="132" y="705" type="curve" smooth="yes"/>
      <point x="131" y="697"/>
      <point x="137" y="684"/>
      <point x="139" y="682" type="curve" smooth="yes"/>
      <point x="144" y="675"/>
      <point x="186" y="681"/>
      <point x="206" y="681" type="curve" smooth="yes"/>
      <point x="213" y="681"/>
      <point x="221" y="674"/>
      <point x="221" y="663" type="curve" smooth="yes"/>
      <point x="221" y="656"/>
      <point x="90" y="16"/>
      <point x="90" y="-13" type="curve"/>
    </contour>
  </outline>
</glyph>
<glyph name="l" format="1">
  <advance width="328"/>
  <unicode hex="006C"/>
  <outline>
    <contour>
      <point x="223" y="101" type="line" smooth="yes"/>
      <point x="222" y="96"/>
      <point x="226" y="91"/>
      <point x="231" y="85" type="curve"/>
      <point x="239" y="80"/>
      <point x="297" y="53"/>
      <point x="303" y="49" type="curve" smooth="yes"/>
      <point x="308" y="45"/>
      <point x="308" y="42"/>
      <point x="305" y="26" type="curve" smooth="yes"/>
      <point x="303" y="13"/>
      <point x="298" y="8"/>
      <point x="296" y="0" type="curve"/>
      <point x="134" y="0" type="line"/>
      <point x="112" y="0"/>
      <point x="102" y="16"/>
      <point x="107" y="47" type="curve"/>
      <point x="218" y="661" type="line"/>
      <point x="220" y="668"/>
      <point x="218" y="674"/>
      <point x="211" y="677" type="curve" smooth="yes"/>
      <point x="196" y="683"/>
      <point x="155" y="701"/>
      <point x="154" y="705" type="curve" smooth="yes"/>
      <point x="152" y="711"/>
      <point x="152" y="712"/>
      <point x="155" y="725" type="curve" smooth="yes"/>
      <point x="157" y="738"/>
      <point x="159" y="744"/>
      <point x="162" y="750" type="curve"/>
      <point x="310" y="750" type="line"/>
      <point x="328" y="750"/>
      <point x="338" y="742"/>
      <point x="335" y="723" type="curve"/>
    </contour>
  </outline>
</glyph>
<glyph name="m" format="1">
  <advance width="1054"/>
  <unicode hex="006D"/>
  <outline>
    <contour>
      <point x="858" y="-9" type="curve" smooth="yes"/>
      <point x="883" y="-9"/>
      <point x="966" y="8"/>
      <point x="1005" y="11" type="curve"/>
      <point x="1006" y="11" type="line" smooth="yes"/>
      <point x="1012" y="11"/>
      <point x="1017" y="23"/>
      <point x="1019" y="36" type="curve" smooth="yes"/>
      <point x="1020" y="43"/>
      <point x="1021" y="47"/>
      <point x="1021" y="50" type="curve" smooth="yes"/>
      <point x="1021" y="55"/>
      <point x="1020" y="57"/>
      <point x="1016" y="59" type="curve" smooth="yes"/>
      <point x="1011" y="64"/>
      <point x="953" y="67"/>
      <point x="946" y="72" type="curve"/>
      <point x="940" y="79"/>
      <point x="937" y="84"/>
      <point x="937" y="89" type="curve" smooth="yes"/>
      <point x="954" y="179"/>
      <point x="991" y="342"/>
      <point x="991" y="427" type="curve"/>
      <point x="991" y="490"/>
      <point x="972" y="563"/>
      <point x="862" y="563" type="curve"/>
      <point x="729" y="563"/>
      <point x="617" y="431"/>
      <point x="617" y="379" type="curve"/>
      <point x="635" y="373" type="line"/>
      <point x="635" y="487"/>
      <point x="613" y="563"/>
      <point x="509" y="563" type="curve"/>
      <point x="401" y="563"/>
      <point x="323" y="481"/>
      <point x="261" y="390" type="curve"/>
      <point x="271" y="386" type="line"/>
      <point x="307" y="538" type="line"/>
      <point x="307" y="543" type="line" smooth="yes"/>
      <point x="307" y="558"/>
      <point x="297" y="566"/>
      <point x="281" y="567" type="curve"/>
      <point x="116" y="532" type="line"/>
      <point x="107" y="532"/>
      <point x="105" y="520"/>
      <point x="103" y="507" type="curve" smooth="yes"/>
      <point x="102" y="499"/>
      <point x="107" y="479"/>
      <point x="109" y="477" type="curve" smooth="yes"/>
      <point x="114" y="470"/>
      <point x="156" y="476"/>
      <point x="176" y="476" type="curve" smooth="yes"/>
      <point x="183" y="476"/>
      <point x="191" y="469"/>
      <point x="191" y="458" type="curve" smooth="yes"/>
      <point x="191.0" y="444.965517241"/>
      <point x="103" y="19"/>
      <point x="103" y="-6" type="curve" smooth="yes"/>
      <point x="103" y="-16"/>
      <point x="213" y="11"/>
      <point x="213" y="19" type="curve"/>
      <point x="254" y="246" type="line"/>
      <point x="285" y="336"/>
      <point x="384" y="466"/>
      <point x="475" y="466" type="curve"/>
      <point x="517" y="466"/>
      <point x="531" y="439"/>
      <point x="531" y="388" type="curve"/>
      <point x="531" y="294"/>
      <point x="463" y="10"/>
      <point x="464" y="-8" type="curve" smooth="yes"/>
      <point x="465" y="-18"/>
      <point x="574" y="8"/>
      <point x="576" y="17" type="curve"/>
      <point x="622" y="256" type="line"/>
      <point x="655" y="345"/>
      <point x="733" y="466"/>
      <point x="822" y="466" type="curve"/>
      <point x="872" y="466"/>
      <point x="883" y="441"/>
      <point x="883" y="387" type="curve"/>
      <point x="883" y="321"/>
      <point x="841" y="150"/>
      <point x="822" y="48" type="curve"/>
      <point x="821" y="45"/>
      <point x="821" y="41"/>
      <point x="821" y="38" type="curve" smooth="yes"/>
      <point x="821" y="12"/>
      <point x="838" y="-9"/>
    </contour>
  </outline>
</glyph>
<glyph name="n" format="1">
  <advance width="695"/>
  <unicode hex="006E"/>
  <outline>
    <contour>
      <point x="102" y="28" type="curve" smooth="yes"/>
      <point x="102" y="3"/>
      <point x="113" y="-8"/>
      <point x="136" y="-8" type="curve" smooth="yes"/>
      <point x="155" y="-8"/>
      <point x="257" y="15"/>
      <point x="297" y="22" type="curve"/>
      <point x="299" y="27"/>
      <point x="303" y="33"/>
      <point x="305" y="47" type="curve" smooth="yes"/>
      <point x="306" y="52"/>
      <point x="306" y="56"/>
      <point x="306" y="60" type="curve" smooth="yes"/>
      <point x="306" y="64"/>
      <point x="306" y="67"/>
      <point x="304" y="71" type="curve"/>
      <point x="303" y="74"/>
      <point x="238" y="75"/>
      <point x="226" y="82" type="curve" smooth="yes"/>
      <point x="219" y="86"/>
      <point x="217" y="91"/>
      <point x="217" y="99" type="curve"/>
      <point x="222" y="133"/>
      <point x="240" y="213"/>
      <point x="246" y="246" type="curve"/>
      <point x="277" y="336"/>
      <point x="381" y="466"/>
      <point x="470" y="466" type="curve" smooth="yes"/>
      <point x="522" y="466"/>
      <point x="539" y="439"/>
      <point x="539" y="375" type="curve" smooth="yes"/>
      <point x="539" y="308"/>
      <point x="489" y="150"/>
      <point x="470" y="48" type="curve"/>
      <point x="469" y="45"/>
      <point x="469" y="41"/>
      <point x="469" y="38" type="curve" smooth="yes"/>
      <point x="469" y="12"/>
      <point x="486" y="-9"/>
      <point x="506" y="-9" type="curve" smooth="yes"/>
      <point x="531" y="-9"/>
      <point x="614" y="8"/>
      <point x="653" y="11" type="curve"/>
      <point x="653" y="11"/>
      <point x="654" y="11"/>
      <point x="654" y="11" type="curve" smooth="yes"/>
      <point x="660" y="11"/>
      <point x="665" y="23"/>
      <point x="667" y="36" type="curve" smooth="yes"/>
      <point x="668" y="43"/>
      <point x="669" y="47"/>
      <point x="669" y="50" type="curve" smooth="yes"/>
      <point x="669" y="55"/>
      <point x="668" y="57"/>
      <point x="664" y="59" type="curve" smooth="yes"/>
      <point x="659" y="64"/>
      <point x="601" y="67"/>
      <point x="594" y="72" type="curve"/>
      <point x="588" y="79"/>
      <point x="585" y="84"/>
      <point x="585" y="89" type="curve" smooth="yes"/>
      <point x="602" y="179"/>
      <point x="643" y="313"/>
      <point x="643" y="403" type="curve" smooth="yes"/>
      <point x="643" y="487"/>
      <point x="609" y="563"/>
      <point x="522" y="563" type="curve" smooth="yes"/>
      <point x="348" y="563"/>
      <point x="252" y="390"/>
      <point x="244" y="345" type="curve"/>
      <point x="262" y="345" type="line"/>
      <point x="307" y="538" type="line"/>
      <point x="307" y="540"/>
      <point x="307" y="541"/>
      <point x="307" y="543" type="curve" smooth="yes"/>
      <point x="307" y="558"/>
      <point x="297" y="566"/>
      <point x="281" y="567" type="curve"/>
      <point x="116" y="532" type="line"/>
      <point x="107" y="532"/>
      <point x="105" y="520"/>
      <point x="103" y="507" type="curve" smooth="yes"/>
      <point x="102" y="499"/>
      <point x="107" y="479"/>
      <point x="109" y="477" type="curve" smooth="yes"/>
      <point x="114" y="470"/>
      <point x="156" y="476"/>
      <point x="176" y="476" type="curve" smooth="yes"/>
      <point x="183" y="476"/>
      <point x="191" y="469"/>
      <point x="191" y="458" type="curve" smooth="yes"/>
      <point x="191" y="451"/>
      <point x="102" y="57"/>
    </contour>
  </outline>
</glyph>
<glyph name="o" format="1">
  <advance width="637"/>
  <unicode hex="006F"/>
  <outline>
    <contour>
      <point x="289" y="481"/>
      <point x="200" y="335"/>
      <point x="200" y="191" type="curve"/>
      <point x="200" y="114"/>
      <point x="223" y="69"/>
      <point x="318" y="69" type="curve"/>
      <point x="455" y="69"/>
      <point x="526" y="217"/>
      <point x="526" y="354" type="curve"/>
      <point x="526" y="423"/>
      <point x="491" y="481"/>
      <point x="409" y="481" type="curve"/>
    </contour>
    <contour>
      <point x="556" y="567"/>
      <point x="629" y="491"/>
      <point x="629" y="359" type="curve"/>
      <point x="629" y="172"/>
      <point x="519" y="-18"/>
      <point x="302" y="-18" type="curve"/>
      <point x="157" y="-18"/>
      <point x="96" y="75"/>
      <point x="96" y="194" type="curve" smooth="yes"/>
      <point x="96" y="378"/>
      <point x="209" y="567"/>
      <point x="425" y="567" type="curve"/>
    </contour>
  </outline>
</glyph>
<glyph name="r" format="1">
  <advance width="438"/>
  <unicode hex="0072"/>
  <outline>
    <contour>
      <point x="88" y="29" type="line"/>
      <point x="87" y="20"/>
      <point x="101" y="-1"/>
      <point x="108" y="-1" type="curve" smooth="yes"/>
      <point x="139" y="-3"/>
      <point x="224" y="12"/>
      <point x="256" y="22" type="curve" smooth="yes"/>
      <point x="259" y="23"/>
      <point x="264" y="36"/>
      <point x="266" y="45" type="curve"/>
      <point x="268" y="56"/>
      <point x="265" y="65"/>
      <point x="262" y="70" type="curve" smooth="yes"/>
      <point x="260" y="73"/>
      <point x="222" y="63"/>
      <point x="210" y="70" type="curve"/>
      <point x="202" y="72"/>
      <point x="200" y="77"/>
      <point x="199" y="89" type="curve"/>
      <point x="199" y="134"/>
      <point x="219" y="247"/>
      <point x="239" y="343" type="curve" smooth="yes"/>
      <point x="247" y="381"/>
      <point x="309" y="473"/>
      <point x="367" y="473" type="curve"/>
      <point x="413" y="473"/>
      <point x="402" y="449"/>
      <point x="409" y="442" type="curve" smooth="yes"/>
      <point x="417" y="434"/>
      <point x="433" y="437"/>
      <point x="442" y="444" type="curve" smooth="yes"/>
      <point x="453" y="452"/>
      <point x="492" y="537"/>
      <point x="486" y="543" type="curve" smooth="yes"/>
      <point x="468" y="561"/>
      <point x="428" y="565"/>
      <point x="396" y="565" type="curve"/>
      <point x="334" y="565"/>
      <point x="238" y="455"/>
      <point x="238" y="431" type="curve"/>
      <point x="247" y="406" type="line"/>
      <point x="262" y="524" type="line"/>
      <point x="261" y="543"/>
      <point x="257" y="550"/>
      <point x="239" y="550" type="curve"/>
      <point x="98" y="534" type="line"/>
      <point x="94" y="534"/>
      <point x="88" y="522"/>
      <point x="88" y="509" type="curve" smooth="yes"/>
      <point x="88" y="496"/>
      <point x="88" y="495"/>
      <point x="91" y="489" type="curve" smooth="yes"/>
      <point x="93" y="485"/>
      <point x="137" y="474"/>
      <point x="153" y="468" type="curve" smooth="yes"/>
      <point x="160" y="465"/>
      <point x="163" y="459"/>
      <point x="163" y="452" type="curve"/>
    </contour>
  </outline>
</glyph>
<glyph name="s" format="1">
  <advance width="451.0"/>
  <unicode hex="0073"/>
  <outline>
    <contour>
      <point x="311" y="322" type="curve" smooth="yes"/>
      <point x="273" y="342"/>
      <point x="210" y="361"/>
      <point x="210" y="419" type="curve"/>
      <point x="210" y="472"/>
      <point x="272" y="495"/>
      <point x="325" y="496" type="curve"/>
      <point x="388" y="495"/>
      <point x="408" y="456"/>
      <point x="403" y="425" type="curve"/>
      <point x="406" y="422"/>
      <point x="414" y="416"/>
      <point x="425" y="416" type="curve" smooth="yes"/>
      <point x="435" y="416"/>
      <point x="442" y="418"/>
      <point x="447" y="421" type="curve"/>
      <point x="476" y="523" type="line"/>
      <point x="476" y="527"/>
      <point x="429" y="561"/>
      <point x="334" y="561" type="curve" smooth="yes"/>
      <point x="235" y="561"/>
      <point x="113" y="515"/>
      <point x="113" y="388" type="curve"/>
      <point x="113" y="315"/>
      <point x="183" y="275"/>
      <point x="218" y="255" type="curve" smooth="yes"/>
      <point x="256" y="233"/>
      <point x="330" y="207"/>
      <point x="330" y="158" type="curve"/>
      <point x="330" y="92"/>
      <point x="288" y="69"/>
      <point x="224" y="69" type="curve"/>
      <point x="168" y="69"/>
      <point x="113" y="100"/>
      <point x="127" y="168" type="curve"/>
      <point x="127" y="172"/>
      <point x="113" y="175"/>
      <point x="102" y="175" type="curve" smooth="yes"/>
      <point x="91" y="175"/>
      <point x="78" y="172"/>
      <point x="77" y="170" type="curve"/>
      <point x="53" y="72" type="line"/>
      <point x="53" y="67"/>
      <point x="98" y="-10"/>
      <point x="220" y="-10" type="curve"/>
      <point x="360" y="-10"/>
      <point x="436" y="61"/>
      <point x="436" y="173" type="curve"/>
      <point x="436" y="257"/>
      <point x="353" y="300"/>
    </contour>
  </outline>
</glyph>
<glyph name="t" format="1">
  <advance width="456"/>
  <unicode hex="0074"/>
  <outline>
    <contour>
      <point x="292" y="-10" type="curve"/>
      <point x="382" y="-10"/>
      <point x="412" y="15"/>
      <point x="415" y="19" type="curve"/>
      <point x="440" y="140" type="line"/>
      <point x="438" y="143"/>
      <point x="424" y="144"/>
      <point x="415" y="144" type="curve"/>
      <point x="407" y="144"/>
      <point x="391" y="143"/>
      <point x="387" y="140" type="curve"/>
      <point x="372" y="99"/>
      <point x="357" y="73"/>
      <point x="297" y="73" type="curve"/>
      <point x="217" y="73"/>
      <point x="208" y="138"/>
      <point x="208" y="219" type="curve"/>
      <point x="208" y="475" type="line"/>
      <point x="392" y="475" type="line"/>
      <point x="396" y="475"/>
      <point x="404" y="502"/>
      <point x="404" y="518" type="curve" smooth="yes"/>
      <point x="404" y="538"/>
      <point x="396" y="550"/>
      <point x="391" y="550" type="curve"/>
      <point x="207" y="550" type="line"/>
      <point x="205" y="681" type="line"/>
      <point x="198" y="687"/>
      <point x="178" y="690"/>
      <point x="168" y="689" type="curve" smooth="yes"/>
      <point x="157" y="689"/>
      <point x="137" y="685"/>
      <point x="130" y="679" type="curve"/>
      <point x="130" y="560"/>
      <point x="45" y="530"/>
      <point x="24" y="530" type="curve" smooth="yes"/>
      <point x="17" y="530"/>
      <point x="12" y="514"/>
      <point x="12" y="500" type="curve" smooth="yes"/>
      <point x="12" y="489"/>
      <point x="20" y="477"/>
      <point x="27" y="477" type="curve"/>
      <point x="103" y="477" type="line"/>
      <point x="103" y="211" type="line"/>
      <point x="103" y="93"/>
      <point x="137" y="-10"/>
    </contour>
  </outline>
</glyph>
<glyph name="u" format="1">
  <advance width="665.0"/>
  <unicode hex="0075"/>
  <outline>
    <contour>
      <point x="661" y="530" type="curve" smooth="yes"/>
      <point x="661" y="555"/>
      <point x="650" y="566"/>
      <point x="627" y="566" type="curve" smooth="yes"/>
      <point x="608" y="566"/>
      <point x="518" y="550"/>
      <point x="478" y="543" type="curve"/>
      <point x="476" y="538"/>
      <point x="472" y="532"/>
      <point x="470" y="518" type="curve" smooth="yes"/>
      <point x="468" y="508"/>
      <point x="472" y="502"/>
      <point x="476" y="494" type="curve"/>
      <point x="477" y="491"/>
      <point x="533" y="495"/>
      <point x="545" y="488" type="curve" smooth="yes"/>
      <point x="552" y="484"/>
      <point x="554" y="479"/>
      <point x="554" y="471" type="curve"/>
      <point x="549" y="437"/>
      <point x="528" y="330"/>
      <point x="522" y="297" type="curve"/>
      <point x="491" y="207"/>
      <point x="407" y="92"/>
      <point x="318" y="92" type="curve" smooth="yes"/>
      <point x="263" y="92"/>
      <point x="241" y="119"/>
      <point x="241" y="172" type="curve"/>
      <point x="241" y="234"/>
      <point x="287" y="435"/>
      <point x="301" y="510" type="curve"/>
      <point x="302" y="513"/>
      <point x="302" y="517"/>
      <point x="302" y="520" type="curve" smooth="yes"/>
      <point x="302" y="546"/>
      <point x="290" y="567"/>
      <point x="270" y="567" type="curve" smooth="yes"/>
      <point x="245" y="567"/>
      <point x="162" y="550"/>
      <point x="123" y="547" type="curve" smooth="yes"/>
      <point x="123" y="547"/>
      <point x="122" y="547"/>
      <point x="122" y="547" type="curve" smooth="yes"/>
      <point x="116" y="547"/>
      <point x="111" y="535"/>
      <point x="109" y="522" type="curve" smooth="yes"/>
      <point x="106" y="503"/>
      <point x="112" y="502"/>
      <point x="118" y="499" type="curve" smooth="yes"/>
      <point x="123" y="494"/>
      <point x="175" y="501"/>
      <point x="182" y="496" type="curve"/>
      <point x="188" y="489"/>
      <point x="192" y="484"/>
      <point x="191" y="479" type="curve" smooth="yes"/>
      <point x="179" y="395"/>
      <point x="133" y="191"/>
      <point x="133" y="122" type="curve"/>
      <point x="133" y="57"/>
      <point x="176" y="-5"/>
      <point x="266" y="-5" type="curve" smooth="yes"/>
      <point x="440" y="-5"/>
      <point x="516" y="153"/>
      <point x="524" y="198" type="curve"/>
      <point x="506" y="198" type="line"/>
      <point x="471" y="20" type="line"/>
      <point x="471" y="18"/>
      <point x="471" y="17"/>
      <point x="471" y="15" type="curve" smooth="yes"/>
      <point x="471" y="0"/>
      <point x="485" y="-8"/>
      <point x="501" y="-9" type="curve"/>
      <point x="652" y="23" type="line"/>
      <point x="661" y="23"/>
      <point x="663" y="35"/>
      <point x="665" y="48" type="curve" smooth="yes"/>
      <point x="666" y="56"/>
      <point x="661" y="76"/>
      <point x="659" y="78" type="curve" smooth="yes"/>
      <point x="654" y="85"/>
      <point x="612" y="84"/>
      <point x="592" y="84" type="curve" smooth="yes"/>
      <point x="585" y="84"/>
      <point x="577" y="91"/>
      <point x="577" y="102" type="curve" smooth="yes"/>
      <point x="577" y="109"/>
      <point x="661" y="501"/>
    </contour>
  </outline>
</glyph>
<glyph name="v" format="1">
  <advance width="595"/>
  <unicode hex="0076"/>
  <outline>
    <contour>
      <point x="264" y="474" type="line"/>
      <point x="264" y="476"/>
      <point x="264" y="481"/>
      <point x="269" y="481" type="curve"/>
      <point x="312" y="498" type="line"/>
      <point x="315" y="500"/>
      <point x="317" y="514"/>
      <point x="317" y="524" type="curve" smooth="yes"/>
      <point x="317" y="532"/>
      <point x="316" y="550"/>
      <point x="312" y="550" type="curve"/>
      <point x="101" y="550" type="line"/>
      <point x="94" y="550"/>
      <point x="92" y="533"/>
      <point x="92" y="525" type="curve" smooth="yes"/>
      <point x="92" y="513"/>
      <point x="93" y="499"/>
      <point x="97" y="497" type="curve" smooth="yes"/>
      <point x="105" y="493"/>
      <point x="152" y="484"/>
      <point x="157" y="481" type="curve" smooth="yes"/>
      <point x="162" y="478"/>
      <point x="164" y="476"/>
      <point x="166" y="472" type="curve"/>
      <point x="283" y="13" type="line"/>
      <point x="285" y="7"/>
      <point x="291" y="2"/>
      <point x="299" y="0" type="curve"/>
      <point x="377" y="0" type="line"/>
      <point x="385" y="3"/>
      <point x="392" y="8"/>
      <point x="394" y="15" type="curve"/>
      <point x="662" y="472" type="line"/>
      <point x="664" y="483"/>
      <point x="669" y="514"/>
      <point x="669" y="528" type="curve" smooth="yes"/>
      <point x="669" y="541"/>
      <point x="659" y="550"/>
      <point x="651" y="550" type="curve"/>
      <point x="502" y="550" type="line"/>
      <point x="498" y="550"/>
      <point x="497" y="532"/>
      <point x="497" y="524" type="curve" smooth="yes"/>
      <point x="497" y="514"/>
      <point x="499" y="500"/>
      <point x="502" y="498" type="curve"/>
      <point x="560" y="478" type="line"/>
      <point x="565" y="478"/>
      <point x="565" y="473"/>
      <point x="565" y="471" type="curve"/>
      <point x="334" y="88" type="line"/>
      <point x="352" y="86" type="line"/>
    </contour>
  </outline>
</glyph>
<glyph name="w" format="1">
  <advance width="995"/>
  <unicode hex="0077"/>
  <outline>
    <contour>
      <point x="692" y="-12" type="curve"/>
      <point x="768" y="3" type="line"/>
      <point x="776" y="6"/>
      <point x="783" y="13"/>
      <point x="791" y="22" type="curve"/>
      <point x="799" y="38"/>
      <point x="995" y="372"/>
      <point x="1050" y="492" type="curve"/>
      <point x="1052" y="503"/>
      <point x="1057" y="534"/>
      <point x="1057" y="548" type="curve" smooth="yes"/>
      <point x="1057" y="561"/>
      <point x="1037" y="570"/>
      <point x="1029" y="570" type="curve"/>
      <point x="886" y="544" type="line"/>
      <point x="882" y="544"/>
      <point x="880" y="526"/>
      <point x="880" y="518" type="curve" smooth="yes"/>
      <point x="880" y="508"/>
      <point x="889" y="494"/>
      <point x="892" y="492" type="curve"/>
      <point x="935" y="495" type="line"/>
      <point x="940" y="495"/>
      <point x="940" y="485"/>
      <point x="940" y="483" type="curve"/>
      <point x="901" y="389"/>
      <point x="819" y="228"/>
      <point x="737" y="86" type="curve"/>
      <point x="757" y="82" type="line"/>
      <point x="714" y="338"/>
      <point x="660" y="570"/>
      <point x="642" y="570" type="curve" smooth="yes"/>
      <point x="623" y="570"/>
      <point x="588" y="558"/>
      <point x="573" y="554" type="curve" smooth="yes"/>
      <point x="553" y="549"/>
      <point x="551" y="523"/>
      <point x="558" y="501" type="curve"/>
      <point x="519" y="407"/>
      <point x="426" y="229"/>
      <point x="343" y="86" type="curve"/>
      <point x="363" y="82" type="line"/>
      <point x="331" y="274"/>
      <point x="297" y="494"/>
      <point x="287" y="530" type="curve"/>
      <point x="280" y="559"/>
      <point x="273" y="570"/>
      <point x="257" y="570" type="curve"/>
      <point x="134" y="540" type="line"/>
      <point x="127" y="540"/>
      <point x="125" y="523"/>
      <point x="125" y="515" type="curve" smooth="yes"/>
      <point x="125" y="503"/>
      <point x="127" y="492"/>
      <point x="131" y="490" type="curve" smooth="yes"/>
      <point x="139" y="486"/>
      <point x="181" y="491"/>
      <point x="186" y="488" type="curve" smooth="yes"/>
      <point x="191" y="485"/>
      <point x="193" y="483"/>
      <point x="195" y="479" type="curve"/>
      <point x="227" y="401"/>
      <point x="255" y="144"/>
      <point x="282" y="1" type="curve"/>
      <point x="284" y="-5"/>
      <point x="290" y="-10"/>
      <point x="298" y="-12" type="curve"/>
      <point x="374" y="3" type="line"/>
      <point x="382" y="6"/>
      <point x="389" y="13"/>
      <point x="397" y="22" type="curve"/>
      <point x="403" y="34"/>
      <point x="519" y="228"/>
      <point x="616" y="399" type="curve"/>
      <point x="594" y="402" type="line"/>
      <point x="629" y="262"/>
      <point x="657" y="103"/>
      <point x="676" y="1" type="curve"/>
      <point x="678" y="-5"/>
      <point x="684" y="-10"/>
    </contour>
  </outline>
</glyph>
<glyph name="x" format="1">
  <advance width="635"/>
  <unicode hex="0078"/>
  <outline>
    <contour>
      <point x="184" y="74" type="curve"/>
      <point x="369" y="242" type="line"/>
      <point x="327" y="259" type="line"/>
      <point x="466" y="3" type="line"/>
      <point x="472" y="-5"/>
      <point x="476" y="-11"/>
      <point x="495" y="-11" type="curve"/>
      <point x="625" y="39" type="line"/>
      <point x="628" y="39"/>
      <point x="634" y="47"/>
      <point x="634" y="60" type="curve" smooth="yes"/>
      <point x="634" y="76"/>
      <point x="633" y="79"/>
      <point x="627" y="83" type="curve" smooth="yes"/>
      <point x="621" y="87"/>
      <point x="553" y="76"/>
      <point x="544" y="81" type="curve"/>
      <point x="406" y="320" type="line"/>
      <point x="412" y="261" type="line"/>
      <point x="662" y="488" type="line"/>
      <point x="672" y="500"/>
      <point x="657" y="538"/>
      <point x="654" y="547" type="curve" smooth="yes"/>
      <point x="651" y="556"/>
      <point x="641" y="557"/>
      <point x="632" y="557" type="curve"/>
      <point x="469" y="546" type="line"/>
      <point x="468" y="541"/>
      <point x="467" y="539"/>
      <point x="466" y="525" type="curve" smooth="yes"/>
      <point x="467" y="513"/>
      <point x="467" y="514"/>
      <point x="469" y="507" type="curve" smooth="yes"/>
      <point x="472" y="504"/>
      <point x="516" y="500"/>
      <point x="524" y="494" type="curve" smooth="yes"/>
      <point x="526" y="492"/>
      <point x="527" y="490"/>
      <point x="526" y="487" type="curve"/>
      <point x="375" y="350" type="line"/>
      <point x="397" y="345" type="line"/>
      <point x="280" y="556" type="line"/>
      <point x="270" y="571"/>
      <point x="262" y="573"/>
      <point x="250" y="573" type="curve"/>
      <point x="128" y="529" type="line"/>
      <point x="125" y="529"/>
      <point x="121" y="522"/>
      <point x="121" y="509" type="curve" smooth="yes"/>
      <point x="121" y="493"/>
      <point x="124" y="489"/>
      <point x="130" y="485" type="curve" smooth="yes"/>
      <point x="136" y="481"/>
      <point x="191" y="494"/>
      <point x="200" y="489" type="curve"/>
      <point x="316" y="277" type="line"/>
      <point x="316" y="310" type="line"/>
      <point x="55" y="73" type="line"/>
      <point x="41" y="59"/>
      <point x="59" y="-3"/>
      <point x="76" y="-3" type="curve" smooth="yes"/>
      <point x="102" y="-3"/>
      <point x="208" y="6"/>
      <point x="238" y="9" type="curve"/>
      <point x="239" y="12"/>
      <point x="245" y="28"/>
      <point x="246" y="32" type="curve" smooth="yes"/>
      <point x="247" y="37"/>
      <point x="240" y="49"/>
      <point x="233" y="49" type="curve" smooth="yes"/>
      <point x="226" y="49"/>
      <point x="198" y="57"/>
      <point x="186" y="60" type="curve"/>
      <point x="184" y="65"/>
      <point x="175" y="65"/>
    </contour>
  </outline>
</glyph>
<glyph name="y" format="1">
  <advance width="662"/>
  <unicode hex="0079"/>
  <outline>
    <contour>
      <point x="175" y="523" type="line"/>
      <point x="170" y="541"/>
      <point x="163" y="550"/>
      <point x="145" y="550" type="curve"/>
      <point x="3" y="550" type="line"/>
      <point x="-4" y="550"/>
      <point x="-6" y="531"/>
      <point x="-6" y="522" type="curve" smooth="yes"/>
      <point x="-6" y="514"/>
      <point x="-1" y="497"/>
      <point x="5" y="496" type="curve"/>
      <point x="81" y="475" type="line"/>
      <point x="258" y="4" type="line"/>
      <point x="231" y="-50"/>
      <point x="185" y="-121"/>
      <point x="150" y="-168" type="curve" smooth="yes"/>
      <point x="143" y="-178"/>
      <point x="106" y="-222"/>
      <point x="100" y="-230" type="curve" smooth="yes"/>
      <point x="95" y="-237"/>
      <point x="94" y="-245"/>
      <point x="97" y="-248" type="curve" smooth="yes"/>
      <point x="103" y="-253"/>
      <point x="198" y="-266"/>
      <point x="209" y="-266" type="curve"/>
      <point x="218" y="-266"/>
      <point x="225" y="-263"/>
      <point x="228" y="-258" type="curve" smooth="yes"/>
      <point x="247" y="-221"/>
      <point x="578" y="441"/>
      <point x="595" y="472" type="curve"/>
      <point x="597" y="476"/>
      <point x="599" y="478"/>
      <point x="604" y="481" type="curve" smooth="yes"/>
      <point x="609" y="484"/>
      <point x="630" y="493"/>
      <point x="638" y="497" type="curve" smooth="yes"/>
      <point x="642" y="499"/>
      <point x="643" y="513"/>
      <point x="643" y="525" type="curve" smooth="yes"/>
      <point x="643" y="533"/>
      <point x="641" y="550"/>
      <point x="634" y="550" type="curve"/>
      <point x="415" y="550" type="line"/>
      <point x="411" y="550"/>
      <point x="410" y="532"/>
      <point x="410" y="524" type="curve" smooth="yes"/>
      <point x="410" y="514"/>
      <point x="412" y="502"/>
      <point x="415" y="500" type="curve"/>
      <point x="483" y="480" type="line"/>
      <point x="488" y="480"/>
      <point x="488" y="475"/>
      <point x="488" y="473" type="curve"/>
      <point x="299" y="67" type="line"/>
      <point x="340" y="63" type="line"/>
    </contour>
  </outline>
</glyph>
<glyph name="z" format="1">
  <advance width="519"/>
  <unicode hex="007A"/>
  <outline>
    <contour>
      <point x="411" y="89" type="line"/>
      <point x="420" y="89"/>
      <point x="424" y="95"/>
      <point x="426" y="101" type="curve"/>
      <point x="432" y="115"/>
      <point x="462" y="153"/>
      <point x="466" y="154" type="curve" smooth="yes"/>
      <point x="471" y="157"/>
      <point x="482" y="157"/>
      <point x="493" y="157" type="curve" smooth="yes"/>
      <point x="504" y="157"/>
      <point x="509" y="156"/>
      <point x="514" y="154" type="curve"/>
      <point x="465" y="1" type="line"/>
      <point x="59" y="1" type="line"/>
      <point x="49" y="1"/>
      <point x="42" y="25"/>
      <point x="42" y="39" type="curve"/>
      <point x="42" y="51"/>
      <point x="49" y="78"/>
      <point x="53" y="84" type="curve"/>
      <point x="422" y="475" type="line"/>
      <point x="467" y="460" type="line"/>
      <point x="232" y="460" type="line"/>
      <point x="223" y="461"/>
      <point x="214" y="457"/>
      <point x="209" y="449" type="curve" smooth="yes"/>
      <point x="203" y="438"/>
      <point x="170" y="394"/>
      <point x="167" y="391" type="curve" smooth="yes"/>
      <point x="162" y="389"/>
      <point x="155" y="389"/>
      <point x="144" y="389" type="curve" smooth="yes"/>
      <point x="133" y="389"/>
      <point x="128" y="390"/>
      <point x="123" y="391" type="curve"/>
      <point x="160" y="536" type="line"/>
      <point x="162" y="543"/>
      <point x="165" y="547"/>
      <point x="172" y="550" type="curve"/>
      <point x="537" y="550" type="line"/>
      <point x="547" y="550"/>
      <point x="555" y="532"/>
      <point x="555" y="522" type="curve"/>
      <point x="555" y="509"/>
      <point x="555" y="482"/>
      <point x="548" y="476" type="curve"/>
      <point x="166" y="65" type="line"/>
      <point x="164" y="89" type="line"/>
    </contour>
  </outline>
</glyph>
<glyph name="Agrave" format="1">
  <advance width="719"/>
  <unicode hex="00C0"/>
  <outline>
    <contour>
      <point x="38" y="0" type="line"/>
      <point x="325" y="750" type="line"/>
      <point x="347" y="750" type="line"/>
      <point x="60" y="0" type="line"/>
    </contour>
    <contour>
      <point x="685" y="0" type="line"/>
      <point x="662" y="0" type="line"/>
      <point x="325" y="750" type="line"/>
      <point x="348" y="750" type="line"/>
    </contour>
    <contour>
      <point x="179" y="332" type="line"/>
      <point x="519" y="332" type="line"/>
      <point x="528" y="312" type="line"/>
      <point x="173" y="312" type="line"/>
    </contour>
    <contour>
      <point x="-5" y="21" type="line"/>
      <point x="131" y="21" type="line"/>
      <point x="131" y="0" type="line"/>
      <point x="-5" y="0" type="line"/>
    </contour>
    <contour>
      <point x="593" y="21" type="line"/>
      <point x="729" y="21" type="line"/>
      <point x="729" y="0" type="line"/>
      <point x="593" y="0" type="line"/>
    </contour>
  </outline>
</glyph>
<glyph name="alt-g" format="1">
  <advance width="622"/>
  <outline>
    <contour>
      <point x="311" y="558" type="curve" smooth="yes"/>
      <point x="449" y="558"/>
      <point x="560" y="446"/>
      <point x="560" y="311" type="curve" smooth="yes"/>
      <point x="560" y="175"/>
      <point x="449" y="63"/>
      <point x="311" y="63" type="curve" smooth="yes"/>
      <point x="173" y="63"/>
      <point x="62" y="175"/>
      <point x="62" y="311" type="curve" smooth="yes"/>
      <point x="62" y="446"/>
      <point x="173" y="558"/>
    </contour>
    <contour>
      <point x="163" y="310" type="curve" smooth="yes"/>
      <point x="163" y="224"/>
      <point x="231" y="148"/>
      <point x="311" y="148" type="curve" smooth="yes"/>
      <point x="397" y="148"/>
      <point x="459" y="224"/>
      <point x="459" y="310" type="curve" smooth="yes"/>
      <point x="459" y="396"/>
      <point x="391" y="472"/>
      <point x="311" y="472" type="curve" smooth="yes"/>
      <point x="228" y="472"/>
      <point x="163" y="396"/>
    </contour>
    <contour>
      <point x="345" y="100" type="line"/>
      <point x="488" y="162" type="line"/>
      <point x="351" y="9" type="line"/>
      <point x="341" y="24" type="line"/>
      <point x="445" y="24"/>
      <point x="568" y="-23"/>
      <point x="568" y="-156" type="curve"/>
      <point x="568" y="-274"/>
      <point x="464" y="-381"/>
      <point x="311" y="-381" type="curve"/>
      <point x="138" y="-381"/>
      <point x="72" y="-228"/>
      <point x="72" y="-112" type="curve"/>
      <point x="146" y="-112" type="line"/>
      <point x="146" y="-195"/>
      <point x="206" y="-289"/>
      <point x="314" y="-289" type="curve"/>
      <point x="401" y="-289"/>
      <point x="459" y="-237"/>
      <point x="459" y="-166" type="curve"/>
      <point x="459" y="-79"/>
      <point x="376" y="-43"/>
      <point x="272" y="-43" type="curve"/>
      <point x="243" y="4" type="line"/>
    </contour>
    <contour>
      <point x="429" y="518" type="line"/>
      <point x="605" y="607" type="line"/>
      <point x="630" y="580" type="line"/>
      <point x="630" y="516" type="line"/>
      <point x="568" y="519" type="line"/>
      <point x="466" y="478" type="line"/>
    </contour>
  </outline>
</glyph>
